 <svg id="Capa_1" enable-background="new 0 0 510 510" height="512" viewBox="0 0 510 510" width="512" xmlns="http://www.w3.org/2000/svg"><g><path d="m510 480-30 10-30-10v-27.692l-10-144.64 10-159.976v-27.692h60z" fill="#febf00"/><path d="m510 510h-60v-2l-10-13 10-13v-2h60z" fill="#fe9e23"/><path d="m450 480-30 10-30-10v-28l-10-182 10-182v-28h60z" fill="#60d64d"/><path d="m450 510h-60v-2l-10-13 10-13v-2h60z" fill="#00c97d"/><path d="m195 480-97.5 10-97.5-10v-450l91.668-10 103.332 10 10 232.333z" fill="#ecf5ff"/><path d="m390 480-105 10-90-10v-450l97.5-10 97.5 10z" fill="#d6e8fe"/><path d="m195 270h135v30h-135z" fill="#48578d"/><path d="m195 345h135v30h-135z" fill="#25d9f8"/><path d="m195 420h135v30h-135z" fill="#48578d"/><path d="m106.623 346.836-42.229-42.23 21.212-21.212 17.771 17.77 34.623-46.164 24 18z" fill="#abe751"/><path d="m106.623 449.836-42.229-42.23 21.212-21.212 17.771 17.77 34.623-46.164 24 18z" fill="#abe751"/><path d="m195 30h-195v-30h195l10 15.836z" fill="#d6e8fe"/><path d="m390 30h-195v-30h195z" fill="#b5dbff"/><path d="m195 510h-195v-30h195l10 15z" fill="#d6e8fe"/><path d="m390 510h-195v-30h195z" fill="#b5dbff"/><path d="m168.481 123.986c-36.724 11.346-63.481 45.614-63.481 86.014v15h90l10-43.333-10-46.667z" fill="#ff835b"/><path d="m195 135.001v89.999h90v-15c0-40.321-26.653-74.534-63.266-85.947z" fill="#ff5757"/><path d="m157.5 97.5c0 20.678 16.822 37.5 37.5 37.5l10-37.5-10-37.5c-20.678 0-37.5 16.822-37.5 37.5z" fill="#ffccbd"/><path d="m195 60v75c20.678 0 37.5-16.822 37.5-37.5s-16.822-37.5-37.5-37.5z" fill="#ffbda9"/></g></svg>