<?xml version="1.0" encoding="iso-8859-1"?>
<!-- Generator: Adobe Illustrator 19.0.0, SVG Export Plug-In . SVG Version: 6.00 Build 0)  -->
<svg version="1.1" id="Layer_1" xmlns="http://www.w3.org/2000/svg" xmlns:xlink="http://www.w3.org/1999/xlink" x="0px" y="0px"
	 viewBox="0 0 503.893 503.893" style="enable-background:new 0 0 503.893 503.893;" xml:space="preserve">
<g transform="translate(1 1)">
	<polygon style="fill:#ECF4F7;" points="233.342,318.573 234.196,319.427 310.996,396.227 345.129,396.227 345.129,430.36 
		379.262,430.36 379.262,464.493 413.396,464.493 413.396,498.627 498.729,498.627 498.729,413.293 319.529,234.093 318.676,233.24 
			"/>
	<path style="fill:#80D6FA;" d="M134.356,182.04c5.973,5.973,14.507,9.387,23.04,9.387c18.773,0,34.133-15.36,34.133-34.133
		s-15.36-34.133-34.133-34.133c-18.773,0-34.133,15.36-34.133,34.133C123.262,166.68,127.529,176.067,134.356,182.04
		 M106.196,323.693L106.196,323.693l-93.013-92.16c-13.653-13.653-13.653-34.987,0-48.64l168.96-168.96
		c13.653-13.653,34.987-13.653,48.64,0l128.853,128.853c13.653,13.653,13.653,34.987,0,48.64l-41.813,41.813l-85.333,85.333
		l-41.813,41.813c-13.653,13.653-34.987,13.653-48.64,0l-35.84-35.84h-0.853C106.196,323.693,106.196,323.693,106.196,323.693"/>
</g>
<path style="fill:#51565F;" d="M499.729,503.893h-85.333c-2.56,0-4.267-1.707-4.267-4.267V469.76h-29.867
	c-2.56,0-4.267-1.707-4.267-4.267v-29.867h-29.867c-2.56,0-4.267-1.707-4.267-4.267v-29.867h-29.867
	c-0.853,0-2.56-0.853-3.413-0.853l-51.2-51.2c-1.707-1.707-1.707-4.267,0-5.973c1.707-1.707,4.267-1.707,5.973,0l50.347,50.347
	h32.427c2.56,0,4.267,1.707,4.267,4.267v29.867h29.867c2.56,0,4.267,1.707,4.267,4.267v29.867h29.867
	c2.56,0,4.267,1.707,4.267,4.267v29.867h76.8v-79.36L342.716,264.107c-1.707-1.707-1.707-4.267,0-5.973
	c1.707-1.707,4.267-1.707,5.973,0l153.6,153.6c0.853,0.853,0.853,1.707,0.853,3.413v85.333
	C503.996,501.333,502.289,503.893,499.729,503.893z M465.596,452.693c-0.853,0-2.56,0-3.413-0.853l-153.6-153.6
	c-1.707-1.707-1.707-4.267,0-5.973c1.707-1.707,4.267-1.707,5.973,0l153.6,153.6c1.707,1.707,1.707,4.267,0,5.973
	C468.156,451.84,466.449,452.693,465.596,452.693z M132.796,427.093c-29.867,0-29.867-45.227-29.867-81.067c0-6.827,0-12.8,0-19.627
	l-91.307-91.307c-7.68-6.827-11.093-17.067-11.093-27.307c0-10.24,4.267-19.627,11.093-27.307l168.96-168.96
	c15.36-15.36,39.253-15.36,54.613,0l128.853,128.853c15.36,15.36,15.36,39.253,0,54.613l-168.96,168.96
	c-15.36,15.36-39.253,15.36-54.613,0l-4.267-4.267c-1.707-1.707-1.707-4.267,0-5.973c1.707-1.707,4.267-1.707,5.973,0l4.267,4.267
	c11.947,11.947,30.72,11.947,41.813,0l168.96-168.96c11.947-11.947,11.947-30.72,0-42.667L228.369,17.493
	c-11.947-11.947-30.72-11.947-42.667,0l-168.96,168.96c-5.973,5.973-8.533,12.8-8.533,21.333c0,7.68,3.413,15.36,8.533,21.333
	l85.333,85.333c2.56-67.413,14.507-106.667,25.6-129.707c-5.973-6.827-9.387-16.213-9.387-27.307c0-21.333,17.067-38.4,38.4-38.4
	s38.4,17.067,38.4,38.4c0,17.92-11.947,33.28-29.013,37.547c-2.56,0.853-4.267-0.853-5.12-3.413c-0.853-2.56,0.853-4.267,3.413-5.12
	c13.653-3.413,22.187-15.36,22.187-29.013c0-16.213-13.653-29.867-29.867-29.867s-29.867,13.653-29.867,29.867
	c0,6.827,1.707,13.653,5.12,18.773c11.093-18.773,22.187-22.187,23.04-23.04c2.56-0.853,4.267,0.853,5.12,2.56
	c0.853,2.56-0.853,4.267-2.56,5.12c-0.853,0-48.64,20.48-48.64,183.467c0,32.427,0,72.533,21.333,72.533
	c20.48,0,21.333-15.36,21.333-17.067c0-2.56,1.707-4.267,4.267-4.267l0,0c2.56,0,4.267,1.707,4.267,4.267
	C162.662,410.027,156.689,427.093,132.796,427.093z"/>
<g>
</g>
<g>
</g>
<g>
</g>
<g>
</g>
<g>
</g>
<g>
</g>
<g>
</g>
<g>
</g>
<g>
</g>
<g>
</g>
<g>
</g>
<g>
</g>
<g>
</g>
<g>
</g>
<g>
</g>
</svg>
